<?xml version="1.0" encoding="UTF-8"?>
<svg id="Layer_1" data-name="Layer 1" xmlns="http://www.w3.org/2000/svg" version="1.1" viewBox="0 0 1000 1000">
  <defs>
    <style>
      .cls-1 {
        fill: #000;
      }

      .cls-1, .cls-2 {
        stroke-width: 0px;
      }

      .cls-2 {
        fill: #010101;
      }
    </style>
  </defs>
  <path fill="#010101" stroke-width="0" d="M82.74,400.14c-6.08.82-10.73-5.1-17.19-3.48-2.16.54-1.68-2.41-1.7-3.92-.08-7-.06-14-.01-21,0-1.33-.1-4.01,1.17-3.56,7.19,2.58,12.17-7.09,19.53-3.2,1.52.8,3.8.2,5.73.2,1.28,0,2.34-.3,2.5-1.89.21-2.08-1.09-2.37-2.66-2.38-3.38-.02-6.78-.21-10.14.03-8.36.59-14.28-2.55-18.02-10.28-3.24-6.69-7.03-13.12-10.7-19.59-1.76-3.1-1.12-5.74,1.67-7.37,3.05-1.77,5.47-.34,7.06,2.71,3.45,6.6,6.89,13.2,10.49,19.72,2.52,4.56,16.89,7.84,21.2,5.07.99-.64,1.26-1.5,1.11-2.41-1.26-7.47,3.74-6.73,8.5-6.73,51.93.05,103.86.05,155.79,0,4.66,0,9.03-.3,8.32,6.47-.29,2.74,1.97,2.22,3.52,2.17,20.46-.62,40.93.81,61.42-.85,10.2-.83,20.68-1.4,30.97.74,2.09.44,4.33.13,6.51.13,44.68,0,89.37-.19,134.05.12,13.9.09,27.65-1.24,41.13-3.85,5.57-1.07,10.99-1.86,16.59-2.21,5.42-.34,10.42.26,14.34,4.41,1.55,1.64,3.41,1.53,5.33,1.53,9.9,0,19.81,0,29.71-.02,1.18,0,3.4-.21,3.4-.31-.08-7.44,6.24-12.23,7.83-18.69,1.29-5.24-.05-11.06.38-16.58.24-3.12-.7-7.63,4.77-7.91,1.04-.05,2.03-.5,1.52-1.71-3.76-8.98-1.26-18.32-1.39-27.45-.34-23.17,2.45-46.34-.05-69.52-.17-1.57.32-3.18,1.89-3.44,3.03-.49,6.25-1.11,9.13.45,2.27,1.23.04,2.88,0,4.36-.5,17.21-2.16,34.43.84,51.62.77,4.41.37,9.04.41,13.57.07,9.65.06,19.31.09,28.96-1.2,1.95.5,2.38,1.63,3.1,1.53,1.9,3.19,2.95,5.96,2.91,14.24-.21,28.49-.08,42.73-.11,2.26,0,6.17.38,4.69-3.14-3.81-9.07,2.45-17.14,1.64-25.87-.41-4.43.35-9.11,1.37-13.49,1.69-7.21-1.01-14.02-1.54-20.97-.49-6.44,2.5-8.76,7.5-11.59-3.43,0-6.86.14-10.27-.06-1.58-.09-4.31,1.31-4.27-2.06.04-2.68,1.8-3.76,4.33-3.77,1.93,0,3.88.13,5.79-.05,1.47-.14,3.9.97,4.02-1.58.12-2.56-2.32-1.9-3.83-1.92-8.93-.07-17.88-.32-26.79.06-6.18.27-8.6-1.71-8.46-8.19.36-16.64.29-33.29.02-49.93-.08-5.04,1.46-7.28,6.58-6.54.71.1,1.45.01,2.17.01,9.95-.01,10.04,0,10.56-9.83.27-5.01,2.62-7.39,7.67-7.39,31.87.04,63.73.03,95.6,0,4.85,0,6.99,2.38,6.96,7.1-.04,8.2-.12,16.41.04,24.6.06,3.09-.9,7.05,4.21,7.53,2.1.2,1.68,1.98,1.74,3.33.36,8.4.81,16.8.96,25.21.06,3.66,1.88,8.95-5.32,7.93-6.02,12.27-17.12,3.34-25.44,6.04-.88.28-1.98-.13-2.86.14-.81.25-1.93.89-2.08,1.56-.39,1.67,1.05,1.85,2.26,1.88,2.65.06,5.31,0,7.96.07,2.22.05,3.67,1.09,3.88,3.42.3,3.38-2.3,2.34-3.94,2.4-3.54.13-7.09.04-10.69.04.09,1.19.1,2.06.17,2.06,10.86.84,7.95,9.57,6.75,14.65-2.4,10.17.43,19.83.37,29.7-.05,8.76,4.52,17.21,1.74,26.15-.13.42-.09,1.27.12,1.37,9.93,4.68,3.3,13.54,5.11,20.26.89,3.31-2.29,8.99,5.17,8.09.29-.04.93.57.96.92,1.02,9.79,8.52,6.85,14.28,7.29,6.33.48,8.45-4.58,11.18-8.68,3.59-5.39,6.99-10.92,10.46-16.39,1.61-2.54,3.72-4,6.56-2.1,2.84,1.9,3.3,4.59,1.41,7.52-4.53,7.04-8.91,14.19-13.68,21.06-3.94,5.67-9.53,8.61-16.62,8.37-2.65-.09-5.31-.1-7.96-.06-1.13.02-2.49-.1-2.61,1.64-.12,1.84.82,2.68,2.57,2.59,2.38-.13,4.72.01,7.15-.53,2.8-.62,6.54-3.01,7.85,2.73.46,2.02,3.97,1.09,5.94.84,4.67-.6,5.79,1.3,5.52,5.64-.36,5.77-.35,11.59,0,17.36.26,4.36-.95,6.09-5.58,5.73-2.21-.17-6.33-2.17-6.27,3.08-2.16,1.95-5.24-.47-7.39,1.55,10.26,14.79,22.69,27.81,34.11,41.64,24.16,29.23,48.7,58.14,72.9,87.34,8.83,10.66,14.32,23.2,19.46,35.98,2.84,7.06,5.96,14.15,16.02,14.63,8.96.43,13.93,10.5,10.22,19.14-6.13,14.31-14.36,26.88-27.55,36.12-38.82,27.19-73.5,59.15-105.33,94.14-21.66,23.81-41.38,49.21-59.15,76.1-2.35,3.56-2.37,6.33-.33,9.9,4.04,7.06,8.99,13.6,12.02,21.26,1.29,3.25.85,5.84-1.06,8.56-8.4,11.99-20.24,16.95-34.38,15.43-13.73-1.48-24.26-8.68-30.68-21.15-3.31-6.42-2.58-12.29,3.18-17.27,7.82-6.76,15.52-13.64,23.22-20.54,13.8-12.37,23.11-28.16,33.15-43.41,27.53-41.8,60.45-79.03,96.74-113.33,10.11-9.55,20.88-18.42,31.65-27.25,2.9-2.38,2.97-3.63,1.2-6.81-18.57-33.3-42.6-62.04-71.05-87.37-26.7-23.78-55.99-43.68-86.97-61.37-5.01-2.86-9.71-2.37-14.43-2.43-25.36-.35-50.72-.06-76.08-.27-4.37-.04-5.34,1.53-5,5.39.28,3.11-.29,6.32.13,9.4.98,7.17-2.05,9.29-8.98,8.95-9.91-.49-9.93-.1-9.93-10.16,0-2.9-.16-5.8.04-8.69.26-3.84-.11-6.86-5.2-5.97-.7.12-1.97.19-2.09-.09-3.99-9.17-12.01-4.45-17.89-4.48-74.6-.36-149.21-.65-223.81-.05-34.03.27-68.05-.92-102.08-.11-2.61.06-6.22-1.71-7.69,1.69-1.33,3.09.45,5.91,2.6,8.44,15.69,18.49,31.25,37.1,46.96,55.58,11.61,13.65,20.86,28.55,26.95,45.53,2.71,7.55,6.48,14.4,16.74,15.19,8.9.69,13.38,10.76,9.65,19.59-6.17,14.6-15.08,26.88-28.3,36.36-37.85,27.14-72.41,57.98-103.56,92.71-20.42,22.76-38.93,46.9-56.78,71.64-4.79,6.64-5.92,12.35-1,19.5,3.74,5.44,7.72,10.9,9.53,17.62.77,2.87.53,5.05-.72,7.26-6.18,10.94-21.86,17.98-35.45,16.04-15.25-2.17-28.95-13.66-31.8-26.65-1.34-6.12,2.55-9.64,6.54-13.04,15.92-13.6,32.02-27.08,43.36-45,14.02-22.14,29.06-43.5,45.47-63.95,27.81-34.66,59.22-65.72,93.55-93.85,3.91-3.21,3.51-4.8,1.39-8.58-26.39-47.05-63.33-84.26-106.86-115.48-15.66-11.23-32.24-20.97-48.54-31.17-7.7-4.82-15.81-3.34-23.86-3.45-15.74-.21-16.12-.06-15.81,15.21.18,8.61-4.81,8.12-10.76,8.37-6.1.25-8.32-1.35-8.47-7.98-.22-9.64,2.19-18.97,1.99-28.56-.08-3.85-.73-6.11-5.13-5.39-4,.65-4.83-1.37-4.76-4.98.19-9.89.05-19.79.04-29.69.51-1.36,1.78-1.44,2.92-1.74-1.09-.19-2.18.57-3.27,0Z"/>
  <path fill="#000" stroke-width="0" d="M82.74,400.14c3.23-2.15,6.44-1.81,9.76.77-3.14.32-6.27.64-9.41.97-.12-.58-.23-1.16-.35-1.73Z"/>
  <path fill="#000" stroke-width="0" d="M795.77,395.69c2.17-1.92,5.14,0,7.39-1.55-1.9,3.17-4.84,1.42-7.39,1.55Z"/>
  <path fill="#000" stroke-width="0" d="M639.4,307.14c-1.46-.05-3.46,1.13-4.16-.81-.66-1.81,1.26-1.96,2.53-2.29.54,1.03,1.09,2.07,1.63,3.1Z"/>
  <path fill="#000" stroke-width="0" d="M580.05,408.7q-8.79-.02-8.78-9.88c0-8.98.08-8.23,10.4-9.17,9.36-.85,8.66,4.36,8.49,10.45-.23,8.62-.07,8.62-10.11,8.6Z"/>
  <path fill="#000" stroke-width="0" d="M188.2,366.37c-3.6-1.24-5.79-3.31-6.89-5.86-.91-2.11-2.04-5.49,2.67-5.48,15.17.04,30.33.04,45.5.09.95,0,1.87.35,2.33,2.16-2.07,1.51-4.66.81-7,.83-9.39.08-18.78.03-28.17.03q-7.94,0-8.43,8.23Z"/>
  <path fill="#000" stroke-width="0" d="M689.68,366.58c1.49-7.34-1.73-8.97-8.11-8.59-9.33.55-18.72.21-28.08.09-2.21-.03-4.73.98-6.81-1.29,1.19-2.82,3.69-1.67,5.51-1.69,12.97-.11,25.93-.13,38.9.01,2.17.02,5.11-1.45,6.46,1.39,1.45,3.06-1.31,4.66-3.01,6.61-1.08,1.24-1.84,2.76-2.75,4.16-.7-.23-1.4-.45-2.1-.68Z"/>
  <path fill="#000" stroke-width="0" d="M733.27,238.13c-.74,0-1.48.01-2.22.02-.71.46-1.42.45-2.12-.02h-17.2c4.24-4.11,35.08-4.47,40.84-.95-5.97,1.63-11.65.35-17.18.96-.71.47-1.41.47-2.12,0Z"/>
  <path fill="#000" stroke-width="0" d="M121.66,446.27c-4.39,0-7.85-.52-11.08.11-6.62,1.3-6.07-4.2-7.41-7.53-.83-2.05.59-2.81,2.89-1.89,5.32,2.12,10.73,4.01,15.6,9.31Z"/>
  <path fill="#000" stroke-width="0" d="M105.66,366.88c-1.3-3.26-2.13-6.41,1.02-8.4,1.68-1.06,3.81.63,4.05,1.74.8,3.73-3.44,4.16-5.07,6.65Z"/>
  <path fill="#000" stroke-width="0" d="M270.67,423.92v12.96c-2.99-4.2-2.04-8.56,0-12.96Z"/>
  <path fill="#000" stroke-width="0" d="M608.88,436.92c-2.02-4.25-1.12-8.61-.58-12.95,2.86,4.23,1.85,8.58.58,12.95Z"/>
  <path fill="#000" stroke-width="0" d="M772.59,367.57c-1.95-3.58-5.69-4.07-4.65-7.64.24-.82,2.91-1.89,3.54-1.46,2.91,1.94,1.45,4.78,1.11,9.1Z"/>
  <path fill="#000" stroke-width="0" d="M269.61,400.7c2.22,2.2,1.71,4.59,1.03,7.41-3.08-2.32-1.75-4.93-1.03-7.41Z"/>
  <path fill="#000" stroke-width="0" d="M728.94,238.13c.71,0,1.41.02,2.12.02-.19,4.25-.38,8.49-.57,12.74-.3.01-.61.02-.91.03-.21-4.26-.42-8.53-.64-12.79Z"/>
  <path fill="#000" stroke-width="0" d="M733.27,238.13c.71,0,1.41,0,2.12,0-.19,4.25-.39,8.5-.58,12.75-.3.01-.59.02-.89.03-.22-4.26-.43-8.52-.65-12.78Z"/>
  <path fill="#000" stroke-width="0" d="M247.6,354.48c-.12.93-.32,1.92-1.5,1.77-.37-.05-.84-.89-.91-1.42-.11-.81-.26-1.97.87-2.16,1.21-.2,1.3.96,1.54,1.81Z"/>
  <path fill="#000" stroke-width="0" d="M633.37,354.31c-.05,1.58-.71,2.26-1.73,2.06-1.12-.22-1.04-1.32-.95-2.21.09-.88.17-2,1.5-1.61,1,.29,1.32,1.19,1.18,1.76Z"/>
  <path fill="#000" stroke-width="0" d="M689.44,441.59c2.52-1.87,4.24-1.39,6.09-.54-1.59,2.31-3.44,1.93-6.09.54Z"/>
</svg>