<?xml version="1.0" encoding="UTF-8"?>
<svg id="Layer_1" data-name="Layer 1" xmlns="http://www.w3.org/2000/svg" version="1.1" viewBox="0 0 1000 1000">
  <path class="cls-2 010101" fill="#010101" stroke-width="0" d="M636.17,317.36c.2-8.33.47-16.67.57-25,.09-8.29.13-16.59-.05-24.88-.11-5.16,3.02-7.59,7.83-5.73,1.68.65,1.7,1.63,1.54,3.36-1.42,15.39-1.39,30.73.11,46.18,1.09,11.29.15,22.78.3,34.17.02,1.87-2.35,1.69-2.06,3.86,15.21,5.35,31.13,1.5,46.71,2.65,1.67.12,3.53-.64,2.67-2.27-3.66-6.89,1.12-13.1,1.35-19.66.37-10.75,2.43-21.42.58-32.25-.69-4.02-.98-8.48,5.4-8.28.28,0,.58-1,1.14-2.03-3.41,0-6.5.14-9.57-.06-1.33-.09-3.84,1.17-3.67-1.7.12-1.95,1.44-3.37,3.77-3.3,1.87.05,3.74.04,5.6-.02,1.13-.04,2.77.4,2.73-1.48-.04-1.77-1.6-1.55-2.8-1.56-7.88-.02-15.78-.24-23.65.07-5.46.21-7.28-1.91-7.17-7.29.27-14.09.25-28.19,0-42.29-.08-4.65,1.46-6.58,6.08-5.96.82.11,1.66.02,2.49.02,8.29,0,8.41,0,8.62-8.39.11-4.36,1.88-6.42,6.35-6.41,27.18.06,54.36.05,81.54,0,4.67,0,6.85,2.11,6.82,6.74-.05,7.26-.08,14.51.03,21.77.03,2.27-.76,5.18,3.34,5.24,2.58.04,1.61,2.45,1.66,3.89.24,7.03.48,14.07.45,21.1-.01,2.65,1.71,6.88-3.9,6.25-5.52,10.35-15.15,3.12-22.59,5.24-1.39.4-3.86-.82-3.67,1.86.15,2.14,2.29,1.01,3.55,1.19,1.22.18,2.49.13,3.73.02,2.76-.25,4.88,1.04,4.65,3.63-.22,2.59-2.98,1.27-4.6,1.4-2.79.22-5.61.06-8.59.06.28,1.13.29,1.79.48,1.85,6.34,1.97,8.15,3.88,5.74,13.26-2.23,8.69.71,16.68.52,25-.16,7.15,2.62,14.16,1.81,21.43-.07.61-.25,1.58.04,1.79,7.53,5.37,2.54,13.16,3.79,19.72.46,2.45-.3,5.2,3.67,4.76,1.05-.12,2.33.12,2.39,1.38.2,4.12,2.2,5.89,6.34,5.75,5.12-.17,10.37.81,13.6-4.99,3.01-5.4,6.61-10.47,9.91-15.71,1.53-2.44,3.3-4.76,6.35-2.54,2.61,1.9,2.27,4.35.42,7.02-3.62,5.25-6.88,10.75-10.35,16.11-3.77,5.81-8.91,9.03-16.09,8.41-1.85-.16-3.73-.04-5.6-.01-1.04.01-2.13.06-2.18,1.49-.06,1.53.67,2.29,2.25,2.16,1.84-.16,3.68-.3,5.53-.45,2.52-.2,5.64-2.74,6.75,2.18.34,1.49,2.61,1.16,3.94.89,6.14-1.23,7.37,2.15,6.35,6.98-2.37,11.14,3.44,16.04,12.78,20.76,30.37,15.36,60.28,31.64,90.23,47.81,10.22,5.52,19.47,12.52,26.7,21.75,3.9,4.98,9.67,6.88,14.72,9.99,1.63,1,2.7-.37,3.96-.81,8.85-3.08,17.01,3.04,16.38,12.45-.97,14.42-5.19,27.41-13.52,39.69-37.72,55.62-64.31,116.28-80.48,181.52-1.11,4.47-.15,7.44,3.56,10.1,4.02,2.88,7.73,6.19,11.54,9.37,4.94,4.13,6.51,9.06,3.61,15.11-5.87,12.23-16.28,18.29-29.1,19.11-10.23.65-19.33-3.56-25.89-12.06-2.13-2.76-3.16-5.6-1.37-8.95,2.43-4.53,4.58-9.23,7.23-13.63,10.13-16.81,15.48-35.24,19.88-54.22,12.52-53.92,32.96-104.73,61.53-152.21,2.29-3.81,2.3-5.93-1.65-9.03-29.61-23.18-62.72-39.44-98.52-50.42-10.79-3.31-21.79-5.95-33.89-9.21,2.95,11.11,5.73,21.26,8.34,31.45,6.89,26.88,15.26,53.39,20.96,80.57,2.1,10.01.31,20.23,1.03,30.28.54,7.57.5,15.67,8.65,20.85,7.12,4.53,6.14,14.08-.59,19.28-14.25,11.01-30.79,13.58-48.13,14.73-37.89,2.5-74.97,9.8-111.44,20.27-25.37,7.29-50.08,16.38-74.28,26.88-3.45,1.5-4.92,3.66-4.97,7.57-.07,5.49.78,11.01-.6,16.49-2.2,8.72-9.74,14.14-18.47,13-16.25-2.12-27.78-12.31-31.01-28.3-1.9-9.4-.31-19.11,14.26-20.2,25.39-1.88,48.3-11.94,71.25-22.2,44.77-20.02,91.65-33.1,140.26-39.9,1.21-.17,2.37-.65,3.57-.88,3.35-.65,7.99,1.16,9.84-1.81,2.14-3.43.57-8.16.08-12.18-3.89-31.68-12.55-62.06-25.97-91.02-10.77-23.24-23.63-45.3-38.38-66.26-1.75-2.48-3.55-3.41-6.58-3.39-17.84.14-35.69.19-53.53-.03-3.91-.05-5.22,1.06-4.73,4.87.29,2.24.28,4.58,0,6.83-.34,2.71,1.73,6.49-1.61,7.9-3.78,1.59-8.18,1.16-12.19.16-1.9-.48-2.44-2.55-2.36-4.62.12-3.11.05-6.22.02-9.33-.03-3.53,1.24-8.09-5.18-6.71-7.3-8.22-16.84-3.21-25.29-3.94-9.24-.79-18.63.14-27.95.14-11.19,0-22.37-.31-33.56-.33-41.29-.04-82.57-.02-123.86-.02h-13.95c10.82,8.27,20.25,16.9,29.3,26.24,3.81,3.93,9.24,8.86,17.3,5.49,6.56-2.75,13.84,3.63,13.81,10.93-.06,14.29-3.54,27.21-11.92,39.48-27.21,39.85-49.05,82.56-65.26,128.09-6.5,18.27-12.11,36.78-16.86,55.57-1.12,4.42-.22,7.46,3.58,10.12,3.7,2.59,7.01,5.73,10.45,8.68,6.89,5.9,7.75,10,3.76,17.66-9.72,18.65-37.15,22.55-51.96,7.63-4.6-4.64-5.42-9.04-2.31-14.74,5.62-10.3,11.85-20.26,16.29-31.21,7.4-18.22,10.21-37.67,15.61-56.43,13.12-45.6,31.77-88.74,56.1-129.41,2.58-4.31,1.44-5.98-1.79-8.54-26.94-21.37-57.16-36.53-89.53-47.68-2.11-.73-3.91-1.14-5.58,1.56-1.47,2.39-11.93,2.83-14.02,1.11-.93-.76-1.81-1.7-1.34-3.15,1.75-5.42-1.7-6.52-5.89-7.37-5.18-1.05-10.28-2.45-15.98-3.84,8.11,30.37,15.95,60.12,24.02,89.81,4.66,17.14,8.31,34.17,6.27,52.28-.77,6.81.27,14.84,8.18,19.63,7.09,4.29,6.87,13.6-.02,18.85-11.13,8.48-23.28,14.13-37.66,15.56-61.49,6.11-120.36,22.18-176.62,47.75-5.44,2.47-10.81,5.11-16.33,7.4-3.51,1.46-5.2,3.59-5.01,7.52.25,5.07.11,10.16.05,15.24-.1,8.63-3.29,12.59-11.54,14.48-20.73,4.76-41.87-14.19-39.24-35.16.89-7.08,3.26-9.62,11.4-11.11,17-3.13,33.97-6.18,49.62-14.17,16.52-8.44,33.18-16.63,50.36-23.7,37.81-15.57,76.81-27.04,117.14-33.91,2.02-.34,4.02-.79,6.05-1,2.69-.28,3.29-1.67,3.05-4.22-3.23-34.07-11.76-66.69-25.83-97.94-11.06-24.55-24.73-47.56-40.03-69.65-1.53-2.21-12.4-4.04-14.11-2.29-.59.6-.66,1.87-.69,2.84-.08,3.11-.33,6.25.03,9.32.72,6.15-1.86,8.03-7.83,7.73-8.4-.42-8.07-.11-8.52-8.66-.42-7.87,2.08-15.48,1.48-23.31-.16-2.06.31-4.56-3-3.99-4.52.77-4.95-1.63-4.84-5.27.25-8.28.17-16.57.23-24.86.55-.56,1.11-1.13,2-1.03-.62-.61-1.37-.1-2.04-.25-5.56,1.17-9.84-4.31-15.59-2.9-1.87.46-1.69-1.9-1.69-3.29-.03-6.01-.04-12.02,0-18.03,0-1.15-.08-3.46,1.04-3.05,6.28,2.3,10.58-6.17,16.97-2.85,1.15.6,2.86.16,4.3.19,1.28.03,2.48,0,2.56-1.79.08-1.85-1.1-1.9-2.41-1.89-.21,0-.42-.04-.62,0-16.42,3.58-23.52-6.65-28.96-19.43-.89-2.08-1.91-4.14-3.18-6-1.8-2.62-1.3-4.75,1.1-6.4,2.78-1.92,4.86-.21,6.13,2.07,3.21,5.74,6.08,11.67,9.22,17.45,1.93,3.55,14.65,6.31,17.84,3.97.43-.31.9-1.02.84-1.48-1.11-7.68,4.32-6.33,8.73-6.33,43.97,0,87.94,0,131.91,0,3.89,0,8.38-1.03,7.7,5.51-.22,2.16,1.74,1.93,3.13,1.88,17.57-.55,35.15.76,52.75-.78,10.25-.89,20.65.49,30.95.6,41.89.46,83.79.42,125.68.03,10.14-.1,20.21-2.01,30.27-4.36,7.06-1.65,15.87-3.19,22.54,3.28.99.96,2.06,1.25,3.34,1.25,9.13,0,18.25.02,27.38-.03.96,0,2.76-.57,2.75-.67-1.09-7.27,6.93-11.29,6.34-18.64-.48-5.98-1.58-12.38,2.13-18.01,2.63-1.03,1.85-3.29,1.9-5.25.22-9.01-.48-18.03.37-27.02Z"/>
  <path class="cls-1 000" fill="#000" stroke-width="0" d="M636.17,317.36c1.21,10.16-1.31,20.44,1.15,30.6.75,3.07-2.17,1.27-3.42,1.67,2.43-5.98.61-12.24,1.24-18.34.48-4.64-1.23-9.44,1.03-13.94Z"/>
  <path class="cls-1 000" fill="#000" stroke-width="0" d="M170.77,429.35c2.48-2.2,4.88-.87,7.31-.77l.07,2.04c-2.45,0-4.9,0-7.34,0-.01-.42-.03-.85-.04-1.27Z"/>
  <path class="cls-1 000" fill="#000" stroke-width="0" d="M595.92,436.8c-4.39,1.02-7.51-.18-5.62-6.51.23-.76.28-1.75-.01-2.46-2.8-6.7,1.4-7.12,6.27-7.22,7.1-.16,8.63,1.15,8.73,7.87q.12,8.34-9.36,8.32Z"/>
  <path class="cls-1 000" fill="#000" stroke-width="0" d="M691.03,400.75c1.73-7.03-1.73-7.79-7.17-7.49-8.02.44-16.09.17-24.14.06-1.64-.02-3.67.91-4.87-.97-.05-1.32.72-1.59,1.56-1.59,12.79-.03,25.59-.05,38.38-.04,1.35,0,3.05-.47,3.63,1.44.46,1.53-.25,2.69-1.26,3.88-1.45,1.71-2.64,3.64-3.94,5.47-.73-.26-1.46-.52-2.19-.77Z"/>
  <path class="cls-1 000" fill="#000" stroke-width="0" d="M297.73,393.37c-10.74,0-21.48-.07-32.22.07-1.72.02-4.37-1.42-4.96,1.94-.2,1.13.6,3.52-2.09,2.08-1.86-.99-4.44-1.14-4.36-4.39.07-2.67,1.65-2.35,3.29-2.35,11,0,21.99-.06,32.99.04,2.46.02,5.2-.84,7.35,2.61Z"/>
  <path class="cls-1 000" fill="#000" stroke-width="0" d="M710.83,288.69c7.31-2.78,14.87-.77,22.31-1.08,3.89-.16,8.08-1.39,11.8,1.09-.88,3.42-3.64,1.59-5.54,1.83-2.63.32-5.32.04-7.98.11-1.12.37-2.25.35-3.39.08-4.9.13-9.8-.26-14.71-.14-1.28.03-2.5-.16-2.5-1.89Z"/>
  <path class="cls-1 000" fill="#000" stroke-width="0" d="M199.87,468.98c-5.11-.02-10.63,2-12.38-5.28-.34-1.41-.63-3.67,1.41-2.88,4.14,1.61,9.57,1.91,10.98,8.16Z"/>
  <path class="cls-1 000" fill="#000" stroke-width="0" d="M710.83,288.69c5.69,2.79,11.84.42,17.67,1.59.27.27.35.53.23.78-.11.24-.21.36-.31.36-2.9,2.93.38,7.18-2.06,10.23-.46-.19-1.06-.29-1.1-.49q-1.58-9.32-11.76-9.99-2.01-.13-2.68-2.48Z"/>
  <path class="cls-1 000" fill="#000" stroke-width="0" d="M188.63,402.56c.27-4.29-.87-7.27,2.35-8.96,1.22-.64,2.83.61,2.98,1.44.64,3.57-2.99,4.06-5.32,7.51Z"/>
  <path class="cls-1 000" fill="#000" stroke-width="0" d="M731.04,290.24c4.54-1.32,9.54,1.46,13.89-1.54,1.75,2.18.08,2.4-1.49,2.44-4.13.1-8.27.1-12.4.14-.28-.23-.37-.46-.28-.69.09-.23.19-.35.28-.35Z"/>
  <path class="cls-1 000" fill="#000" stroke-width="0" d="M763.03,398.32c-1.75-1.16-4.4-.7-4.36-3.41,0-.51,1.62-1.5,2.39-1.41,2.34.29,2.49,2.08,1.97,4.81Z"/>
  <path class="cls-1 000" fill="#000" stroke-width="0" d="M731.04,290.24c-.01.35-.01.69,0,1.04,0,0,.01-.02.01-.02-1.78,3.16.35,6.82-1.25,10-2.65-2.97-.57-6.61-1.39-9.84.04-.38.07-.76.08-1.14.85-.01,1.7-.03,2.54-.04Z"/>
  <path class="cls-1 000" fill="#000" stroke-width="0" d="M622.45,450.09v10.72c-.2,0-.41.02-.61.02v-10.63c.2-.04.41-.08.61-.12Z"/>
  <path class="cls-1 000" fill="#000" stroke-width="0" d="M729.81,301.26c.48-3.33-1.36-6.94,1.25-10-.73,3.29,1.04,6.9-1.25,10Z"/>
  <path class="cls-1 000" fill="#000" stroke-width="0" d="M641.06,392.08c-.07-.16-.51-.71-.49-1.24.04-.75.2-1.86.69-2.15.92-.54,1.38.25,1.39,1.19,0,.77.22,1.64-1.6,2.2Z"/>
  <path class="cls-1 000" fill="#000" stroke-width="0" d="M330.49,435.62c-.35-2.72-.75-4.34.33-5.94.81,1.86.9,3.61-.33,5.94Z"/>
  <path class="cls-1 000" fill="#000" stroke-width="0" d="M357.2,765.15c-1.17,0-1.81-.5-1.77-1.39.02-.4.62-1.03,1.05-1.12.79-.16,1.68.07,1.5,1.19-.08.5-.55.94-.78,1.32Z"/>
</svg>