<?xml version="1.0" encoding="iso-8859-1"?>
<!-- Uploaded to: SVG Repo, www.svgrepo.com, Generator: SVG Repo Mixer Tools -->
<svg fill="#000000" height="800px" width="800px" version="1.1" id="Layer_1" xmlns="http://www.w3.org/2000/svg" xmlns:xlink="http://www.w3.org/1999/xlink" 
	 viewBox="0 0 507.9 507.9" xml:space="preserve">
<g>
	<g>
		<path d="M390.949,164.6h-35.2v-62.7c0.1-56.2-45.6-101.9-101.8-101.9s-101.9,45.7-101.9,101.9v62.7h-35.1
			c-7.8,0-14.1,6.3-14.1,14.1v97.8c0,78.6,60.3,143.3,137,150.4v52.8h-32.1c-7.8,0-14.1,6.3-14.1,14.1c0,7.8,6.3,14.1,14.1,14.1
			h92.4c7.8,0,14.1-6.3,14.1-14.1s-6.3-14.1-14.1-14.1h-32.1V427c76.7-7.1,137-71.9,137-150.4v-97.8
			C405.149,170.9,398.749,164.6,390.949,164.6z M180.349,248.5L180.349,248.5h22.5c7.8,0,14.1-6.3,14.1-14.1
			c0-7.8-6.3-14.1-14.1-14.1h-22.5v-17.4h22.5c7.8,0,14.1-6.3,14.1-14.1s-6.3-14.1-14.1-14.1h-22.5v-17.4h22.5
			c7.8,0,14.1-6.3,14.1-14.1c0-7.8-6.3-14.1-14.1-14.1h-22.5v-17.4h22.5c7.8,0,14.1-6.3,14.1-14.1s-6.3-14.1-14.1-14.1h-20
			c8.3-31.6,37-55.1,71.2-55.1c34.2,0,62.9,23.4,71.2,55.1h-20c-7.8,0-14.1,6.3-14.1,14.1s6.3,14.1,14.1,14.1h22.5v17.4h-22.5
			c-7.8,0-14.1,6.3-14.1,14.1c0,7.8,6.3,14.1,14.1,14.1h22.5v17.4h-22.5c-7.8,0-14.1,6.3-14.1,14.1s6.3,14.1,14.1,14.1h22.5v17.4
			h-22.5c-7.8,0-14.1,6.3-14.1,14.1c0,7.8,6.3,14.1,14.1,14.1h22.5v17.4h-22.5c-7.8,0-14.1,6.3-14.1,14.1c0,7.8,6.3,14.1,14.1,14.1
			h20c-8.3,31.6-37,55-71.2,55s-62.9-23.4-71.2-55h20c7.8,0,14.1-6.3,14.1-14.1s-6.3-14.1-14.1-14.1h-22.5V248.5z M377.049,276.5
			h-0.2c0,67.8-55.1,122.9-122.9,122.9s-122.9-55.1-122.9-122.9v-83.7h21.1v82.7c0,56.2,45.7,101.9,101.9,101.9
			s101.9-45.7,101.9-101.9v-82.7h21.1V276.5z"/>
	</g>
</g>
</svg>